<?xml version="1.0" standalone="no"?>
<!DOCTYPE svg PUBLIC "-//W3C//DTD SVG 20010904//EN"
 "http://www.w3.org/TR/2001/REC-SVG-20010904/DTD/svg10.dtd">
<svg version="1.0" xmlns="http://www.w3.org/2000/svg"
 width="700.000000pt" height="700.000000pt" viewBox="0 0 700.000000 700.000000"
 preserveAspectRatio="xMidYMid meet">
<metadata>
Created by potrace 1.11, written by Peter Selinger 2001-2013
</metadata>
<g transform="translate(0.000000,700.000000) scale(0.100000,-0.100000)"
fill="#000000" stroke="none">
<path d="M0 3500 l0 -3500 3500 0 3500 0 0 3500 0 3500 -3500 0 -3500 0 0
-3500z m3731 2590 c391 -39 751 -179 1069 -418 100 -74 286 -257 370 -362 182
-228 324 -510 391 -777 l24 -93 220 -2 220 -3 -3 -105 c-12 -446 -168 -918
-430 -1300 -94 -137 -171 -230 -297 -356 -201 -202 -402 -347 -660 -474 -1241
-614 -2732 -107 -3345 1135 -155 313 -236 625 -256 982 l-7 123 223 2 223 3
23 85 c134 502 441 932 870 1218 398 266 889 389 1365 342z m-2686 -2847 c246
-521 682 -973 1198 -1243 157 -83 258 -125 440 -185 l159 -52 -547 -312 c-301
-172 -549 -310 -551 -308 -2 2 -7 261 -10 575 l-7 572 -664 2 -663 3 298 522
c163 287 298 522 299 523 1 0 22 -44 48 -97z m5215 -405 c129 -226 252 -442
273 -480 l39 -68 -656 0 -657 0 68 59 c94 81 259 250 338 346 113 137 345 503
345 544 0 6 3 11 8 11 4 0 113 -185 242 -412z m-1023 -1129 c-3 -309 -8 -563
-10 -566 -3 -2 -244 132 -535 299 -292 167 -528 306 -524 309 4 3 45 16 92 29
308 84 630 238 885 424 49 37 92 66 94 66 2 0 1 -252 -2 -561z m-2176 12 c315
-53 588 -54 904 -5 55 8 117 19 139 25 21 6 40 8 42 6 3 -3 -547 -957 -603
-1045 -14 -23 -25 -6 -320 500 -168 287 -308 529 -311 537 -4 10 -1 13 10 8 9
-3 71 -15 139 -26z"/>
<path d="M3295 5436 c-561 -94 -1012 -481 -1183 -1016 -53 -167 -66 -256 -66
-455 1 -145 5 -199 22 -281 62 -288 186 -529 377 -732 48 -51 89 -91 92 -89 2
3 -9 44 -24 93 -25 83 -27 102 -27 274 -1 214 14 288 88 446 61 128 116 206
215 304 144 142 291 226 485 275 533 135 1084 -169 1255 -691 41 -126 55 -233
49 -378 -5 -113 -33 -259 -59 -308 -43 -80 145 118 230 242 79 116 123 198
166 308 215 557 82 1178 -343 1597 -115 113 -240 202 -387 274 -131 64 -202
90 -340 122 -116 27 -428 35 -550 15z"/>
<path d="M3402 3586 c-232 -57 -396 -271 -394 -516 1 -202 113 -377 296 -465
296 -142 647 21 732 340 31 113 12 275 -44 379 -37 71 -155 187 -222 219 -115
55 -251 71 -368 43z"/>
</g>
</svg>
