<svg xmlns="http://www.w3.org/2000/svg" xmlns:xlink="http://www.w3.org/1999/xlink" viewBox="0 0 1181 82"><defs><linearGradient id="c" x1="100%" x2="0%" y1="50%" y2="50%"><stop offset="0%" stop-color="#ce9753" stop-opacity="0"/><stop offset="18.251%" stop-color="#ce9753"/><stop offset="80.791%" stop-color="#854d34"/><stop offset="100%" stop-color="#854d34" stop-opacity="0"/></linearGradient><filter id="a" width="102.1%" height="135.7%" x="-1.1%" y="-23.6%" filterUnits="objectBoundingBox"><feOffset dy="-4" in="SourceAlpha" result="shadowOffsetOuter1"/><feGaussianBlur in="shadowOffsetOuter1" result="shadowBlurOuter1" stdDeviation="3.5"/><feColorMatrix in="shadowBlurOuter1" values="0 0 0 0 0 0 0 0 0 0 0 0 0 0 0 0 0 0 0.2 0"/></filter><path id="b" d="M36 82c5.43 0 9.848-4.327 9.996-9.72L46 72v-.12a588.626 588.626 0 00-5.769-1.32c.449.17 1.083.612 1.368 1.754.464 1.862-1.859 3.538-1.859 3.538.836-1.117-.558-3.538-3.718-3.353-3.16.187-3.625 3.912-7.808 2.795-4.182-1.118-2.23-5.868-2.23-5.868s-5.856 1.491-10.131 1.491c-4.174 0-5.07-1.332-5.111-1.396l-.002-.002-3.625.373c-.09-2.825 1.775-12.334 4.033-17.802-1.27.784-3.376.78-3.753-1.571 0 0 .836.931 1.487.279.65-.652 1.115-1.862-.744-5.215-1.825-3.293-1.674-10.8 5.105-10.806-3.26-3.51-5.682-6.76-6.314-9.22-.836-3.26-.278-7.358.93-9.5 1.208-2.142-.372-3.353-1.859-3.353 0 0 4.368-1.397 4.74 2.515 0 0 3.997-3.539 10.875-1.398 6.878 2.143 10.596 2.982 12.733.653 0 0 .28 2.235-1.021 2.7 0 0 .464 1.118 3.531 1.118 3.068 0 3.811-.65 3.811-1.675s-1.58-1.677-2.881-.374c0 0-.464-1.675 1.487-3.353 1.951-1.676 3.904.838 3.904 2.05 0 0 1.673-2.422 4.368-.652 0 0-3.625 1.025-3.904 3.632 0 0 10.895-7.617 17.474-4.749 1.35.587 1.996 2.251 1.938 3.773A34.832 34.832 0 0181 12h1018c.222 0 .444.002.666.006L1100 12a33.987 33.987 0 0117.977 5.345c-.199-1.619.436-3.535 1.906-4.174 6.58-2.868 17.474 4.75 17.474 4.75-.28-2.608-3.904-3.633-3.904-3.633 2.695-1.77 4.368.652 4.368.652 0-1.212 1.953-3.726 3.904-2.05 1.951 1.678 1.487 3.353 1.487 3.353-1.301-1.303-2.881-.651-2.881.374 0 1.024.743 1.675 3.81 1.675 3.068 0 3.532-1.117 3.532-1.117-1.3-.466-1.02-2.7-1.02-2.7 2.136 2.328 5.854 1.49 12.732-.654 6.878-2.141 10.875 1.398 10.875 1.398.357-3.756 4.397-2.618 4.72-2.521l.02.006c-1.487 0-3.067 1.211-1.859 3.353 1.208 2.142 1.766 6.24.93 9.5-.632 2.46-3.053 5.71-6.314 9.22 6.78.007 6.93 7.513 5.105 10.806-1.859 3.353-1.394 4.563-.744 5.215.651.652 1.487-.28 1.487-.28-.377 2.353-2.483 2.356-3.753 1.572 2.258 5.468 4.124 14.977 4.033 17.802l-3.625-.373c-.042.066-.94 1.398-5.113 1.398-4.275 0-10.13-1.49-10.13-1.49s1.951 4.749-2.231 5.867c-4.183 1.117-4.648-2.608-7.808-2.795-3.16-.185-4.554 2.236-3.718 3.353 0 0-2.323-1.676-1.859-3.538.285-1.142.92-1.584 1.368-1.754-1.02.227-3.55.796-6.767 1.555l.002.165c.148 5.393 4.567 9.72 9.996 9.72H36zm1109.257-12.108s3.253 1.769 4.926 2.607c1.674.838 3.16-2.7-.186-3.26-3.345-.558-4.74.653-4.74.653zm-1109.514 0s-1.395-1.21-4.74-.653c-3.346.56-1.86 4.098-.186 3.26 1.673-.838 4.926-2.607 4.926-2.607zM1134 67.033v2.899c.758-.18 1.503-.366 2.226-.556-.674-1.437-1.5-2.079-2.226-2.343zM46 67.641c-.426.379-.85.933-1.226 1.735.402.106.812.21 1.226.313zm-30.594-7.092l-.111.4c-2.789-.743-4.183 2.238-4.183 2.238 2.974-.932 3.16 2.048 3.16 2.048-.464-1.117-3.532.185-2.324 1.49 2.82 3.041 6.507.466 13.2-.373 6.55-.82 11.15.681 18.317 2.667a7.927 7.927 0 01.058-1.904l-5.102-1.19a1.771 1.771 0 01-3.208-.75l-8.372-1.955-.045.194a.89.89 0 01-1.067.665.88.88 0 01-.574-.443c-.798.487-1.973.655-3.194.37-1.325-.308-2.363-1.071-2.816-1.948a.885.885 0 01-.863.282.89.89 0 01-.663-1.069l.044-.194-2.257-.528zm1150.188 0l-2.257.528.044.194a.89.89 0 01-.663 1.069.885.885 0 01-.863-.282c-.453.877-1.491 1.64-2.816 1.948-1.221.285-2.396.117-3.194-.37a.88.88 0 01-.574.443.889.889 0 01-1.067-.665l-.045-.194-8.372 1.955a1.771 1.771 0 01-3.208.749l-5.102 1.19c.105.702.11 1.345.058 1.905 7.167-1.986 11.767-3.487 18.317-2.667 6.693.84 10.38 3.414 13.2.373 1.208-1.305-1.86-2.607-2.324-1.49 0 0 .186-2.98 3.16-2.048 0 0-1.394-2.981-4.183-2.237l-.111-.4zM20.145 50.612l-.854 1.398s-.928-.56-2.601-.56c-1.674 0-2.79 1.21-2.79 3.354 0 2.141 2.324 2.794 2.324 2.794l-.467 1.686 2.204.515.045-.195a.889.889 0 011.066-.664.88.88 0 01.65.635c.795-.586 2.061-.81 3.385-.5 1.222.284 2.201.957 2.702 1.747a.88.88 0 01.712-.143c.477.112.774.59.662 1.068l-.045.194 8.373 1.955a1.767 1.767 0 011.857-.718c.73.17 1.245.768 1.35 1.467l5.1 1.19c.085-.267.185-.54.303-.819l-4.701-2.824a1.77 1.77 0 01-2.825-1.697l-7.372-4.43-.103.17a.884.884 0 01-1.631-.292c-.908.221-2.078.02-3.153-.626-1.166-.7-1.921-1.745-2.085-2.718a.883.883 0 01-.908.002.89.89 0 01-.306-1.22l.102-.171-.994-.598zm1140.71 0l-.994.598.102.17a.89.89 0 01-.306 1.22.88.88 0 01-.908-.001c-.164.973-.92 2.018-2.085 2.718-1.075.646-2.245.847-3.153.626a.884.884 0 01-1.631.292l-.103-.17-7.372 4.43a1.77 1.77 0 01-2.825 1.697l-4.701 2.824c.118.278.218.552.302.82l5.1-1.19a1.77 1.77 0 013.208-.75l8.373-1.955-.045-.194a.883.883 0 011.374-.925c.5-.79 1.48-1.463 2.702-1.747 1.324-.31 2.59-.086 3.385.5a.88.88 0 01.65-.635.889.889 0 011.066.664l.045.195 2.204-.515-.467-1.686s2.323-.653 2.323-2.794c0-2.144-1.115-3.354-2.789-3.354-1.673 0-2.601.56-2.601.56l-.854-1.398zm-26.343 12.57l-.512.347.002 1.943c.338-.718.47-1.563.51-2.29zm25.443-20.793c-5.42 4.927-11.154 9.64-14.79 12.786-2.679 2.318-6.105 4.865-9.755 7.39.339.43.631.857.877 1.275l4.619-2.775a1.775 1.775 0 01.836-1.81 1.77 1.77 0 011.99.113l7.371-4.428-.101-.172a.89.89 0 01.305-1.219.874.874 0 01.721-.083c.235-.906.962-1.846 2.038-2.491 1.165-.701 2.44-.878 3.375-.563a.887.887 0 01.426-.805.887.887 0 011.218.306l.102.17.982-.59-.226-.372s2.527-2.899.012-6.732zm-1138.91 0c-2.515 3.833.012 6.732.012 6.732l-.226.373.982.589.102-.17a.886.886 0 011.644.499c.935-.315 2.21-.138 3.375.563 1.076.645 1.803 1.585 2.038 2.49a.878.878 0 01.721.084.89.89 0 01.305 1.22l-.101.17 7.372 4.43a1.77 1.77 0 012.825 1.696l4.619 2.775c.246-.418.538-.845.877-1.275-3.65-2.525-7.076-5.072-9.754-7.39-3.637-3.147-9.37-7.86-14.79-12.786zM1134 51.31v8.921l3.408-4.953a1.791 1.791 0 01-.27-1.8L1134 51.31zm35.005 6.662a.978.978 0 000 1.956.979.979 0 000-1.956zm-1157.01 0a.978.978 0 000 1.956.979.979 0 000-1.956zm29.002-2.514l-.24.165c1.29 1.04 2.64 2.1 4.044 3.17l-2.029-2.949a1.785 1.785 0 01-1.775-.386zm1099.006 0c-.48.443-1.16.591-1.775.386l-2.03 2.949c1.406-1.07 2.755-2.13 4.045-3.17l-.24-.165zM46 51.999l-2.138 1.478c.244.606.14 1.299-.27 1.8L46 58.778v-6.779zm1098.21-2.736a1.792 1.792 0 01-1.638.266l-2.394 3.48c.364.446.489 1.042.343 1.594l.53.366a189.007 189.007 0 005.13-4.344l-1.972-1.362zm-1107.42 0l-1.97 1.362a185.987 185.987 0 005.13 4.344l.529-.366a1.802 1.802 0 01.343-1.594l-2.394-3.48a1.786 1.786 0 01-1.637-.266zm8.13-5.616l-5.338 3.687c.16.563.035 1.174-.334 1.629l2.394 3.48a1.786 1.786 0 011.608.246L46 50.788V47c0-1.012.043-2.014.127-3.004a1.773 1.773 0 01-1.208-.35zm1091.16 0a1.793 1.793 0 01-1.637.266l-.52.756c.051.77.077 1.548.077 2.331v3.098l3.75 2.591a1.787 1.787 0 011.608-.246l2.394-3.48a1.806 1.806 0 01-.334-1.629l-5.337-3.687zm31.484-6.354c-2.089 0-5.075 2.86-5.446 3.222 2.72 3.438 5.314 7.02 6.78 9.624.126-1.573 1.176-3.625 1.176-3.625-1.395.466-5.334-1.03-5.02-3.447.56-4.284 4.09-2.048 4.09-2.048s-1.673.093-1.859 1.584c-.134 1.077.558 1.583 1.487 1.769 2.038.408 3.067-1.583 2.882-3.073-.186-1.491-1.859-4.006-4.09-4.006zm-1154.128 0c-2.231 0-3.904 2.515-4.09 4.006-.185 1.49.844 3.48 2.882 3.073.929-.186 1.62-.692 1.487-1.77-.186-1.49-1.86-1.583-1.86-1.583s3.532-2.236 4.091 2.048c.314 2.418-3.625 3.913-5.02 3.447 0 0 1.05 2.052 1.177 3.625 1.465-2.605 4.059-6.186 6.779-9.624-.371-.363-3.357-3.222-5.446-3.222zm1135.058 5.833a1.789 1.789 0 01-1.795.404l-2.177 3.164c.402.494.51 1.17.281 1.77l2.148 1.482a176.25 176.25 0 004.896-4.505l-3.353-2.315zm-1115.988 0l-3.353 2.315c1.4 1.338 3.038 2.858 4.896 4.505l2.148-1.482a1.793 1.793 0 01.281-1.77l-2.177-3.164a1.789 1.789 0 01-1.795-.404zm-15.398 4.32a.977.977 0 000 1.956.978.978 0 000-1.956zm1146.784 0a.977.977 0 000 1.956.978.978 0 000-1.956zm-23.528-9.936a1.78 1.78 0 01-1.794.403l-2.177 3.166c.402.493.51 1.17.282 1.769l5.278 3.645a1.78 1.78 0 011.75-.364l2.177-3.166a1.8 1.8 0 01-.262-1.826l-5.254-3.627zm-1099.728 0l-5.254 3.627a1.8 1.8 0 01-.262 1.826l2.177 3.166a1.78 1.78 0 011.75.364l5.278-3.645c-.228-.6-.12-1.276.282-1.769l-2.177-3.166a1.78 1.78 0 01-1.794-.403zm-12.353-.567L23.79 40.05c.556.599 2.153 2.293 4.63 4.688l3.583-2.476a1.794 1.794 0 01.349-1.565L30 37.278a1.784 1.784 0 01-1.717-.335zm1124.434 0a1.785 1.785 0 01-1.717.335l-2.35 3.418c.357.438.483 1.02.348 1.565l3.582 2.476c2.478-2.395 4.075-4.09 4.631-4.688l-4.494-3.106zm-20.167-4.832a1.783 1.783 0 01-1.665.44 34.596 34.596 0 012.53 8.043l.407.283a1.79 1.79 0 011.751-.364l2.178-3.165a1.796 1.796 0 01-.262-1.825l-4.939-3.412zm-1084.1 0l-4.939 3.412a1.796 1.796 0 01-.262 1.825l2.178 3.165a1.77 1.77 0 011.17.018 34.723 34.723 0 012.531-8.015 1.756 1.756 0 01-.678-.405zm-12.037-.783l-5.295 3.658a1.8 1.8 0 01-.299 1.727l2.351 3.416a1.788 1.788 0 011.585.231l5.376-3.713a1.804 1.804 0 01.349-1.567l-2.35-3.418a1.792 1.792 0 01-1.717-.334zm1108.174 0a1.792 1.792 0 01-1.717.334l-2.35 3.418c.357.438.483 1.022.349 1.567l5.376 3.713c.46-.32 1.048-.41 1.585-.23l2.35-3.417a1.8 1.8 0 01-.298-1.727l-5.295-3.658zM28.04 34.43a71.517 71.517 0 00-3.102 3.613l2.792-1.929a1.792 1.792 0 01.32-1.67zm1124.918 0l-.01.014c.382.467.5 1.096.32 1.67l2.792 1.93a71.109 71.109 0 00-3.102-3.614zM27.1 30.96c-3.624 1.676-5.298.278-5.298.278 1.116 1.771-.093 2.982-.093 2.982s.186-.654-1.115-1.117c-1.302-.467-1.952 1.303-1.116 2.607.837 1.304 1.58 1.955 1.58 1.955.465-.651 6.042-6.706 6.042-6.706zm1126.802 0s5.577 6.054 6.042 6.705c0 0 .743-.651 1.58-1.955.836-1.304.186-3.074-1.116-2.607-1.301.463-1.115 1.117-1.115 1.117s-1.21-1.21-.093-2.982c0 0-1.674 1.398-5.298-.279zM44.228 25.93l-4.98 3.44a1.8 1.8 0 01-.3 1.726l2.35 3.417a1.79 1.79 0 011.587.231l5.06-3.497a1.796 1.796 0 01.349-1.566l-2.351-3.417a1.783 1.783 0 01-1.715-.335zm1092.544 0a1.785 1.785 0 01-1.715.334l-2.35 3.417c.357.438.483 1.022.348 1.566l5.06 3.497c.46-.32 1.05-.41 1.586-.23l2.351-3.418a1.8 1.8 0 01-.3-1.726l-4.98-3.44zm8.933 1.612l-.885 1.287c.382.465.5 1.096.32 1.67l5.32 3.673c.47-.37 1.1-.484 1.67-.294l.134-.194a72.3 72.3 0 00-6.559-6.142zm-1110.41 0a72.582 72.582 0 00-6.56 6.142l.134.194c.571-.19 1.2-.077 1.672.294L35.86 30.5a1.79 1.79 0 01.32-1.67zm1132.083-8.97c-3.997.838-4.275 4.75-1.95 5.588 2.322.839 2.415-2.049 2.415-2.049 1.58 2.515.836 4.844-1.58 4.844s-3.439-1.676-3.439-1.676c1.023 3.539-1.394 5.309-1.394 5.309 2.23-.094 2.974 2.793 2.974 2.793s5.205-6.707 6.32-8.661c1.115-1.956.65-6.986-3.346-6.148zm-1153.756 0c-3.997-.838-4.461 4.192-3.347 6.148 1.116 1.954 6.321 8.661 6.321 8.661s.744-2.887 2.974-2.793c0 0-2.417-1.77-1.394-5.31 0 0-1.023 1.677-3.439 1.677-2.416 0-3.16-2.329-1.58-4.844 0 0 .093 2.888 2.416 2.05 2.324-.84 2.046-4.751-1.95-5.589zm1115.274 1.915a1.786 1.786 0 01-1.52.386 2.188 2.188 0 01-.202-.041l-1.919 2.789a33.233 33.233 0 013.317 4.53l1.73 1.195c.46-.32 1.048-.41 1.585-.23l2.351-3.419a1.799 1.799 0 01-.3-1.725l-5.042-3.485zm-1076.792 0l-5.043 3.485a1.796 1.796 0 01-.299 1.725l2.351 3.418a1.788 1.788 0 011.586.231l.123-.086a35.173 35.173 0 014.583-6.133l-1.579-2.295a1.9 1.9 0 01-.202.041 1.786 1.786 0 01-1.52-.386zm1106.723-3.964c-4.833 2.609-2.695 4.937-1.394 4.843 1.302-.093 1.116-1.21 1.116-1.21s.836 3.26-2.045 3.353c-2.882.093-2.975-3.446-2.975-3.446l-.012.027c-.143.335-1.52 3.665-.639 6.492.93 2.98 4.276 2.98 5.577 2.514 1.302-.465 1.58-3.352-1.022-3.166 0 0-.371-3.539 3.81-2.421l-.009-.028c-.146-.425-1.79-5.684 6.237-6.4 0 0-3.81-3.166-8.644-.558zm-1136.654 0c-4.833-2.608-8.644.558-8.644.558 8.026.716 6.383 5.975 6.237 6.4l-.01.028c4.182-1.118 3.811 2.421 3.811 2.421-2.602-.186-2.324 2.701-1.022 3.166 1.3.467 4.647.467 5.577-2.514.88-2.827-.496-6.157-.64-6.492l-.011-.027s-.093 3.54-2.975 3.446c-2.88-.093-2.045-3.352-2.045-3.352s-.186 1.116 1.116 1.21c1.301.093 3.439-2.235-1.394-4.844zm20.821 5.454a73.673 73.673 0 00-6.925 4.935l.93 1.35c.57-.19 1.2-.077 1.671.295l5.004-3.457a1.8 1.8 0 01.32-1.67zm1095.012 0l-1 1.453a1.8 1.8 0 01.32 1.67l5.004 3.457a1.788 1.788 0 011.672-.295l.929-1.35a73.36 73.36 0 00-6.925-4.935zm13.569-3.311c-2.321 2.235-9.943 2.235-9.943 2.235 1.766.745 8.645 6.52 8.645 6.52-1.916-3.564 1.179-8.563 1.297-8.75l.001-.005zm-1122.151 0c.12.192 3.215 5.19 1.3 8.754 0 0 6.878-5.774 8.644-6.52 0 0-7.622 0-9.945-2.234h.001zm22.06-1.24a67.855 67.855 0 00-7.642 4.027l.971 1.411c.57-.19 1.2-.077 1.671.295l5.067-3.5a1.798 1.798 0 01.319-1.671zm1078.032 0l-.386.562a1.8 1.8 0 01.319 1.67l5.067 3.501a1.787 1.787 0 011.671-.295l.971-1.411a67.75 67.75 0 00-7.642-4.026zm-8.89-.158c.094 1.864 2.603.838 2.603.838.186 1.676-1.209 2.142-1.209 2.142s-.046.011-.123.024a33.831 33.831 0 012.673 2.587l1.749-2.543a1.808 1.808 0 01-.488-1.232c0-1.003.812-1.816 1.813-1.816.24 0 .47.05.68.135l.262-.38c-2.691-1.144-4.492-1.658-4.893-1.71-1.394-.187-3.16.092-3.066 1.955zm-1060.253 0c.094-1.863-1.672-2.142-3.066-1.955-.4.052-2.202.566-4.893 1.71l.262.38c.21-.085.44-.135.68-.135a1.813 1.813 0 011.325 3.048l1.428 2.079a34.955 34.955 0 012.53-2.321c-.4-.257-.993-.837-.868-1.968 0 0 2.509 1.026 2.602-.838z"/></defs><g fill="none" fill-rule="evenodd"><use fill="#000" filter="url(#a)" xlink:href="#b"/><use fill="#603324" xlink:href="#b"/><path fill="url(#c)" d="M78 11h1024v1H78z"/></g></svg>