<?xml version="1.0" encoding="UTF-8"?>
<svg width="544px" height="544px" viewBox="0 0 544 544" version="1.1" xmlns="http://www.w3.org/2000/svg" xmlns:xlink="http://www.w3.org/1999/xlink">
    <!-- Generator: Sketch 63.1 (92452) - https://sketch.com -->
    <title>assets/ornements</title>
    <desc>Created with Sketch.</desc>
    <g id="assets/ornements" stroke="none" stroke-width="1" fill="none" fill-rule="evenodd">
        <path d="M257.328338,525.508631 L261.816285,525.731419 L261.483733,532.496333 L263.727707,532.607727 L264.060258,525.845823 L266.304232,525.957217 L265.86083,534.977103 L256.88194,534.531528 L256.774085,536.786499 L261.259036,537.012298 L261.148186,539.267269 L256.663235,539.044482 L256.549388,541.299453 L265.525283,541.745028 L265.414432,544 L254.194564,543.44002 L254.748817,532.168173 L259.23976,532.38795 L259.461461,527.874996 L257.217487,527.763603 L257.328338,525.508631 Z M295.878245,524.909212 L297.049665,542.933931 L285.838785,543.668528 L285.104775,532.402702 L287.348749,532.255181 L287.058141,527.75427 L289.299118,527.603737 L289.589727,532.11067 L294.077674,531.815627 L293.637268,525.056733 L295.878245,524.909212 Z M225.779688,521.742618 L232.430718,522.856556 L230.950714,531.765048 L233.167724,532.138368 L232.796225,534.363233 L226.151187,533.249295 L225.408189,537.705047 L234.273233,539.189294 L233.90473,541.417169 L222.822676,539.562613 L224.30268,530.65111 L228.7367,531.394739 L229.845205,524.711112 L225.411185,523.967483 L225.779688,521.742618 Z M294.22148,534.067588 L287.495551,534.510152 L287.935957,541.272056 L294.661886,540.826481 L294.22148,534.067588 Z M322.882624,520.845446 L323.287078,523.070311 L321.07606,523.473737 L323.508779,536.801854 L327.930815,535.98597 L328.33527,538.207824 L317.286172,540.246029 L316.878721,538.021164 L321.300757,537.208291 L318.865042,523.883185 L316.65702,524.292632 L316.24957,522.070778 L322.882624,520.845446 Z M263.506006,537.123691 L265.749979,537.235085 L265.639129,539.490057 L263.39216,539.375652 L263.506006,537.123691 Z M292.127304,536.470081 L292.274106,538.722042 L290.033128,538.869563 L289.883331,536.614592 L292.127304,536.470081 Z M318.277834,533.174029 L318.685285,535.395883 L316.474267,535.80232 L316.069812,533.583476 L318.277834,533.174029 Z M201.38449,515.926959 L207.858758,517.814632 L202.846518,535.164967 L200.692423,534.535743 L205.075512,519.356081 L202.918421,518.726857 L202.292266,520.89452 L200.132179,520.265295 L199.506024,522.432958 L197.348933,521.800723 L195.470466,528.306723 L197.627557,528.935947 L197.001402,531.10662 L192.684224,529.848172 L195.817998,519.006846 L197.978084,519.636071 L198.60424,517.465397 L200.758335,518.094622 L201.38449,515.926959 Z M327.11891,531.545271 L327.526361,533.764115 L325.312347,534.173562 L324.910888,531.951708 L327.11891,531.545271 Z M353.87073,529.02446 L354.529841,531.183091 L352.381738,531.848443 L351.725623,529.689812 L353.87073,529.02446 Z M358.166936,527.696766 L358.829043,529.855397 L356.677944,530.517739 L356.018833,528.362118 L358.166936,527.696766 Z M225.042682,526.198369 L227.259692,526.568678 L226.888193,528.796554 L224.671183,528.423234 L225.042682,526.198369 Z M353.541174,512.58936 L354.203281,514.747991 L345.613866,517.403378 L346.932088,521.72064 L351.228294,520.392946 L350.569183,518.231305 L352.717286,517.571974 L353.373401,519.730605 L355.521503,519.065253 L357.504829,525.538135 L348.915413,528.193522 L348.253306,526.034891 L354.697615,524.044856 L354.035508,521.886225 L345.446092,524.541612 L342.803656,515.910099 L353.541174,512.58936 Z M198.879868,524.600621 L201.036959,525.229845 L200.410803,527.400519 L198.253713,526.771295 L198.879868,524.600621 Z M169.405321,504.275469 L175.612948,506.909782 L172.116664,515.231199 L174.183876,516.110307 L173.309056,518.190661 L167.101428,515.553338 L165.351788,519.714046 L173.632619,523.227467 L172.757799,525.307821 L162.409756,520.915293 L165.90604,512.596887 L170.04346,514.352091 L172.66792,508.114039 L168.530501,506.355824 L169.405321,504.275469 Z M380.966785,501.414154 L388.22899,517.939574 L386.170766,518.848788 L379.819333,504.394691 L373.653648,507.128355 L377.284751,515.389559 L375.226527,516.304794 L370.687649,505.975278 L380.966785,501.414154 Z M380.487432,511.499808 L381.395207,513.56812 L379.336983,514.477334 L378.429208,512.415044 L380.487432,511.499808 Z M167.655681,508.436178 L169.722892,509.315286 L168.851068,511.392629 L166.78086,510.513522 L167.655681,508.436178 Z M143.132855,490.711921 L152.902678,496.290642 L151.794173,498.253581 L147.884446,496.022695 L146.775941,497.985634 L150.682672,500.216521 L149.574167,502.17946 L147.617806,501.065522 L142.072285,510.883229 L140.115924,509.76628 L145.66444,499.948573 L141.75771,497.720698 L142.866214,495.754748 L144.822576,496.868686 L145.931081,494.908757 L142.02435,492.677871 L143.132855,490.711921 Z M378.67188,507.369206 L379.579656,509.434507 L377.524428,510.346732 L376.616652,508.284442 L378.67188,507.369206 Z M406.830902,487.144008 L407.972362,489.088883 L404.098587,491.379982 L405.240047,493.327868 L409.113823,491.033758 L410.255283,492.978634 L408.316898,494.125689 L414.018208,503.853076 L412.082818,505.000131 L406.381508,495.272744 L404.443122,496.416788 L410.147429,506.147186 L408.212039,507.29123 L402.510728,497.563843 L400.572343,498.710898 L399.430882,496.763012 L403.304658,494.474923 L402.163197,492.527037 L398.289422,494.821147 L397.153953,492.873261 L406.830902,487.144008 Z M140.649205,499.683637 L142.60257,500.797575 L141.491069,502.760514 L139.537704,501.643565 L140.649205,499.683637 Z M120.427678,475.509679 L125.862348,479.516845 L124.535138,481.338284 L122.719586,480.001558 L114.747339,490.927182 L118.37245,493.597622 L117.04524,495.41605 L107.985459,488.741455 L109.312669,486.920016 L112.937779,489.590456 L120.910027,478.667844 L119.097472,477.331118 L120.427678,475.509679 Z M119.220306,488.621029 L121.029865,489.954744 L119.702655,491.776183 L117.8901,490.439458 L119.220306,488.621029 Z M427.31098,472.671847 L432.739658,479.870294 L434.528246,478.506473 L435.885416,480.309848 L430.513661,484.398301 L433.230996,487.99602 L440.391338,482.543745 L441.748508,484.341099 L432.793586,491.160205 L427.367903,483.961758 L430.948075,481.234116 L426.879562,475.836033 L423.293399,478.563675 L421.939225,476.766322 L427.31098,472.671847 Z M111.97308,483.277138 L113.78264,484.616874 L112.45543,486.435302 L110.639879,485.101588 L111.97308,483.277138 Z M426.442152,479.000219 L427.799321,480.800583 L426.007738,482.164404 L424.650568,480.36404 L426.442152,479.000219 Z M99.4508693,457.973286 L104.38821,462.58258 L102.857275,464.235423 L99.5677117,461.164568 L98.0367765,462.817411 L99.6845541,464.355849 L98.1536189,466.008692 L96.5088373,464.473264 L88.8601531,472.746511 L83.9228122,468.134206 L85.4537474,466.478352 L88.7433107,469.552219 L99.4508693,457.973286 Z M452.88389,449.995082 L454.441788,451.626851 L452.817978,453.189374 L455.93078,456.44689 L457.551594,454.884366 L465.329104,463.031166 L457.219043,470.846795 L454.109237,467.58928 L455.730051,466.026756 L457.284954,467.655514 L462.150392,462.964932 L457.482687,458.075648 L455.861873,459.641182 L451.197164,454.751898 L446.331726,459.44248 L444.776824,457.810711 L452.88389,449.995082 Z M457.416776,461.26994 L458.974675,462.901709 L457.353861,464.464232 L455.795962,462.832464 L457.416776,461.26994 Z M451.128257,457.94619 L452.686156,459.574948 L451.065342,461.137472 L449.507443,459.508714 L451.128257,457.94619 Z M76.0805891,433.169803 L80.4606816,438.321013 L73.6239025,444.185746 L75.0829347,445.901812 L73.3752378,447.367995 L68.9981413,442.216785 L65.5797517,445.149151 L71.4188764,452.016428 L69.7081837,453.485622 L62.4130227,444.899268 L69.2468059,439.031525 L72.1678662,442.466668 L77.2939526,438.068119 L74.3728923,434.632976 L76.0805891,433.169803 Z M469.500678,431.195423 L476.427336,436.948762 L477.862401,435.20861 L479.594065,436.647698 L475.297859,441.871163 L478.764184,444.746327 L484.489463,437.785721 L486.221127,439.224808 L479.060784,447.925566 L472.134126,442.172228 L474.998264,438.688914 L469.800274,434.374662 L466.939133,437.854966 L465.207469,436.418889 L469.500678,431.195423 Z M470.102866,437.553901 L471.834531,438.992989 L470.402462,440.73314 L468.670797,439.294053 L470.102866,437.553901 Z M72.6651955,436.102169 L74.1242277,437.818236 L72.4165309,439.284419 L70.9545027,437.568352 L72.6651955,436.102169 Z M51.1452198,414.242192 L52.3975308,416.117822 L48.6645655,418.63472 L52.4185025,424.258601 L63.6144024,416.71393 L64.8667134,418.58956 L49.9378482,428.651129 L48.6885331,426.775498 L50.5520198,425.51705 L45.5457718,418.017538 L51.1452198,414.242192 Z M489.182933,403.266893 L496.726758,408.174241 L491.840348,415.758051 L493.727803,416.983382 L496.16951,413.192983 L498.053968,414.421325 L495.612261,418.211725 L497.499716,419.437056 L502.386125,411.856257 L504.270584,413.0846 L498.164819,422.562104 L488.733539,416.426413 L491.178241,412.633003 L487.403333,410.179329 L486.183977,412.076034 L484.296523,410.847692 L486.73823,407.057292 L492.397597,410.739309 L493.619948,408.842604 L487.960581,405.160587 L489.182933,403.266893 Z M53.6468458,417.993453 L54.8991568,419.869084 L53.0326741,421.124522 L51.7833591,419.251902 L53.6468458,417.993453 Z M498.611216,409.402583 L500.498671,410.630926 L499.279315,412.52462 L497.391861,411.296278 L498.611216,409.402583 Z M45.0313656,385.358083 L47.0835977,389.377292 L41.0856872,392.469222 L42.1133012,394.477321 L48.1082158,391.385391 L49.1358299,393.393489 L41.1396145,397.51807 L37.0351502,389.482664 L35.0368453,390.512304 L37.0860815,394.531512 L35.0877767,395.561152 L33.0385405,391.541944 L31.0372397,392.574594 L35.1417039,400.610001 L33.1433991,401.63964 L28.0143167,391.596136 L38.008837,386.441915 L40.0610691,390.458112 L44.0606748,388.398833 L43.0330607,386.387723 L45.0313656,385.358083 Z M38.1136956,396.539611 L39.1413096,398.54771 L37.1400088,399.580361 L36.1153907,397.569251 L38.1136956,396.539611 Z M503.041941,377.065568 L519.163198,385.052804 L518.168539,387.078967 L504.060567,380.088254 L501.079587,386.163731 L509.141714,390.158855 L508.150051,392.185017 L498.071644,387.190361 L503.041941,377.065568 Z M509.11475,385.110006 L511.131031,386.10954 L510.136372,388.132692 L508.120092,387.133158 L509.11475,385.110006 Z M505.082189,383.110939 L507.09847,384.110473 L506.103811,386.136636 L504.090526,385.137102 L505.082189,383.110939 Z M32.5286282,356.009433 L36.4563309,366.585821 L34.3501715,367.37461 L32.7772928,363.144656 L30.6741294,363.933445 L32.2440121,368.163398 L30.1378527,368.955197 L29.3559073,366.838715 L18.8281063,370.785668 L18.0431649,368.669186 L28.56797,364.722233 L26.9950914,360.49228 L29.1042467,359.703492 L29.8861921,361.819974 L31.9923515,361.028174 L30.4224688,356.798221 L32.5286282,356.009433 Z M513.032866,351.498586 L515.151009,352.254258 L514.399023,354.382782 L527.104887,358.9138 L528.605862,354.656751 L530.724006,355.409411 L526.967073,366.052034 L524.848929,365.296363 L526.352901,361.039314 L513.647037,356.508296 L512.895052,358.636821 L510.779904,357.881149 L513.032866,351.498586 Z M521.367625,361.659506 L523.482772,362.412167 L522.733782,364.540692 L520.615639,363.78502 L521.367625,361.659506 Z M24.8919279,361.281068 L25.6768693,363.39755 L23.5737058,364.186339 L22.7857685,362.072868 L24.8919279,361.281068 Z M524.372572,353.145408 L526.490715,353.901079 L525.738729,356.029604 L523.620586,355.273933 L524.372572,353.145408 Z M24.3262908,327.559158 L26.9956906,338.523919 L24.8146322,339.059814 L23.7450747,334.673307 L21.5640163,335.212212 L22.6305778,339.598719 L20.4495195,340.134613 L19.9132427,337.942865 L9.00195894,340.628359 L8.46867818,338.4336 L19.379962,335.748107 L18.3104045,331.3616 L20.4914629,330.825705 L21.0277396,333.020464 L23.2117939,332.481559 L22.1422365,328.095052 L24.3262908,327.559158 Z M16.1293461,331.900505 L16.6626269,334.092253 L14.4785726,334.631158 L13.9482878,332.436399 L16.1293461,331.900505 Z M521.214831,320.639797 L538.744189,324.646963 L538.243863,326.847743 L522.907548,323.343354 L521.412564,329.945694 L530.175745,331.950783 L529.67542,334.151563 L518.722193,331.646708 L521.214831,320.639797 Z M528.983353,327.046445 L531.170403,327.546212 L530.673074,329.746992 L528.483028,329.247225 L528.983353,327.046445 Z M524.600265,326.043901 L526.793307,326.543668 L526.292982,328.747459 L524.099939,328.244681 L524.600265,326.043901 Z M19.464448,298.268914 L20.8425893,309.474527 L3.00464759,311.69337 L1.62051439,300.490768 L6.08449376,299.93681 L6.36012202,302.173717 L4.12813233,302.453707 L4.95801306,309.176473 L18.3349714,307.511587 L17.5080866,300.788822 L15.2790929,301.06279 L15.0004687,298.825882 L19.464448,298.268914 Z M8.864744,304.139667 L9.14037226,306.379586 L6.91137853,306.659575 L6.63575028,304.416646 L8.864744,304.139667 Z M15.5517252,303.30873 L15.8303494,305.548648 L13.6013557,305.825627 L13.3227315,303.582698 L15.5517252,303.30873 Z M531.960438,291.965831 L534.192428,292.203672 L533.952751,294.449612 L540.657708,295.172166 L540.897385,292.929237 L543.13237,293.170089 L541.927995,304.396776 L539.696005,304.155925 L539.935682,301.909985 L537.700696,301.669134 L537.461019,303.912063 L535.226034,303.671211 L535.708383,299.182343 L540.175358,299.664045 L540.415035,297.421116 L524.779123,295.729135 L525.021796,293.483195 L531.720761,294.20876 L531.960438,291.965831 Z M529.006422,298.456778 L531.238412,298.697629 L530.998735,300.943569 L528.766745,300.699707 L529.006422,298.456778 Z M17.9757559,268.5912 L18.1555134,279.881111 L15.9085439,279.917238 L15.8725924,277.662267 L11.3786535,277.734522 L11.414605,279.992504 L0.182753518,280.173143 L-5.32907052e-15,268.886243 L4.49393897,268.813987 L4.52989048,271.068959 L2.28292099,271.108097 L2.39077553,277.882044 L9.13168398,277.77065 L9.09273651,275.512668 L15.833645,275.401274 L15.7257904,268.630338 L17.9757559,268.5912 Z M6.81281147,273.290813 L6.84876298,275.551806 L4.60478946,275.584923 L4.56584199,273.329952 L6.81281147,273.290813 Z M13.5147724,270.924448 L13.5537199,273.18243 L11.3067504,273.218558 L11.267803,270.960576 L13.5147724,270.924448 Z M543.820242,261.346087 L544,272.635998 L535.015118,272.777499 L534.943215,268.264545 L528.202307,268.372928 L528.27421,272.888892 L526.02724,272.928031 L525.919386,266.154084 L534.907263,266.006563 L534.871312,263.751591 L537.115286,263.712453 L537.22314,270.486399 L541.720075,270.414144 L541.573273,261.382215 L543.820242,261.346087 Z M532.735193,270.558655 L532.768149,272.816637 L530.524175,272.855775 L530.488224,270.594782 L532.735193,270.558655 Z M2.07020788,237.01949 L6.54017917,237.504204 L6.30050243,239.750143 L4.06252082,239.509292 L3.34349059,246.2441 L16.7504085,247.692219 L17.4694387,240.957411 L15.2344531,240.71656 L15.4741298,238.47062 L19.9470971,238.952323 L18.7427214,250.17901 L0.8688282,248.246178 L2.07020788,237.01949 Z M12.7627867,242.718637 L14.9947763,242.959489 L14.7550996,245.205428 L12.520114,244.964577 L12.7627867,242.718637 Z M6.05782972,241.996083 L8.29281537,242.236934 L8.05313863,244.482874 L5.81815298,244.239012 L6.05782972,241.996083 Z M541.016324,229.829473 L541.291952,232.069391 L534.601975,232.900328 L534.874608,235.140247 L539.338587,234.589299 L540.162476,241.312065 L533.475495,242.139992 L532.921242,237.660155 L530.692248,237.934123 L531.243505,242.416971 L524.553528,243.247908 L523.175386,232.042295 L529.86836,231.214368 L530.41662,235.694205 L532.645614,235.420237 L532.097353,230.937389 L541.016324,229.829473 Z M527.911998,233.731266 L525.680008,234.008245 L526.506893,240.731011 L528.738883,240.454032 L527.911998,233.731266 Z M537.382225,237.106197 L535.150236,237.383176 L535.42886,239.623094 L537.657854,239.346115 L537.382225,237.106197 Z M7.74994754,205.762092 L9.94298976,206.264869 L9.44566051,208.465649 L11.6327108,208.965416 L12.133036,206.764636 L14.3260782,207.264403 L13.3284238,211.668973 L8.94533531,210.666429 L8.44800606,212.867209 L23.7843218,216.374608 L23.2839966,218.575388 L16.7138578,217.073077 L16.2135326,219.276868 L14.0234863,218.774091 L14.5208156,216.573311 L7.94768086,215.071 L7.45035161,217.27178 L5.2573094,216.772013 L7.74994754,205.762092 Z M18.2088415,210.470737 L20.3988878,210.970504 L19.8985625,213.171284 L17.7115122,212.668507 L18.2088415,210.470737 Z M534.499513,198.697919 L537.165917,209.665691 L534.984859,210.201586 L533.915301,205.815079 L520.819963,209.030446 L521.353244,211.225204 L519.16919,211.761099 L517.569347,205.182844 L519.753402,204.643939 L520.286682,206.838698 L533.385017,203.623331 L532.315459,199.233814 L534.499513,198.697919 Z M532.27052,208.545732 L532.800805,210.73748 L530.619746,211.276385 L530.086465,209.081627 L532.27052,208.545732 Z M530.134401,199.772719 L530.667681,201.964467 L528.486623,202.500361 L527.950346,200.305602 L530.134401,199.772719 Z M20.5196249,179.002895 L22.6347722,179.755556 L21.8857824,181.887091 L30.3553593,184.906766 L31.1073451,182.778241 L28.9892019,182.02257 L29.7411877,179.894045 L33.9744782,181.405388 L30.969531,189.916476 L28.8513878,189.163815 L29.6033735,187.03228 L23.2519398,184.768276 L22.499954,186.896801 L20.3818108,186.141129 L21.1337966,184.015615 L19.0156533,183.259944 L20.5196249,179.002895 Z M525.173691,170.629996 L525.958633,172.746478 L515.433828,176.693431 L517.006706,180.923384 L514.897551,181.712173 L514.115605,179.595691 L512.009446,180.38749 L513.579329,184.617443 L511.473169,185.406231 L507.545467,174.829843 L509.651626,174.041054 L511.224505,178.271008 L513.327668,177.482219 L511.757786,173.252266 L513.863945,172.460467 L514.64589,174.576949 L525.173691,170.629996 Z M15.5313527,179.620077 L17.6494959,180.375748 L16.8975101,182.504273 L14.7793669,181.748601 L15.5313527,179.620077 Z M520.428092,177.229325 L521.216029,179.342797 L519.10987,180.134596 L518.324928,178.018114 L520.428092,177.229325 Z M29.8064996,146.237165 L31.8227802,147.236698 L29.8334632,151.286013 L41.925155,157.280203 L42.9198135,155.25404 L44.9360941,156.253574 L41.9551146,162.32604 L39.938834,161.329518 L40.9334925,159.303355 L28.8418007,153.312175 L26.8524837,157.36149 L24.839199,156.361957 L29.8064996,146.237165 Z M29.8634228,156.334861 L31.8797034,157.334394 L30.8850449,159.357547 L28.8687643,158.361024 L29.8634228,156.334861 Z M510.858998,139.773916 L515.98808,149.820432 L507.991865,153.942002 L505.939633,149.925804 L499.941722,153.017735 L501.993954,157.036943 L499.995649,158.066583 L496.915803,152.039276 L504.912018,147.914695 L503.890396,145.906596 L505.888701,144.876956 L508.965551,150.904263 L512.965157,148.841973 L508.860693,140.806567 L510.858998,139.773916 Z M504.965946,152.966554 L505.99356,154.974652 L503.995255,156.004292 L502.967641,153.996194 L504.965946,152.966554 Z M33.8390608,148.236231 L35.8523455,149.232754 L34.8606829,151.258917 L32.8444023,150.259383 L33.8390608,148.236231 Z M48.3910344,123.204241 L50.2724968,124.432583 L46.6114345,130.119687 L48.4988889,131.345019 L53.3823026,123.76422 L60.9261281,128.671568 L54.8203631,138.149072 L52.9329087,136.92073 L57.8193183,129.339931 L54.0474055,126.886257 L51.6056987,130.676656 L53.4931531,131.904999 L52.2678057,133.798693 L50.3833473,132.570351 L49.1609959,134.467056 L43.5046247,130.78504 L48.3910344,123.204241 Z M494.122071,112.847027 L500.377634,122.22819 L492.911703,127.255964 L490.410077,123.504703 L484.810629,127.274028 L487.312256,131.028299 L485.445773,132.283738 L481.691836,126.656846 L489.157766,121.629072 L487.908451,119.753442 L489.771938,118.494993 L493.525875,124.121885 L497.25884,121.607998 L492.255588,114.105475 L494.122071,112.847027 Z M489.79291,126.638782 L491.045221,128.514413 L489.178738,129.769851 L487.926427,127.89422 L489.79291,126.638782 Z M40.9520674,126.43466 L42.8395218,127.663003 L41.6171704,129.556697 L39.732712,128.331366 L40.9520674,126.43466 Z M43.3967702,122.644261 L45.2812286,123.872603 L44.0588772,125.769308 L42.1744188,124.540966 L43.3967702,122.644261 Z M64.9407136,93.491001 L68.4040426,96.366165 L66.971974,98.1093273 L65.2373136,96.67024 L60.9470998,101.890695 L71.3370867,110.522208 L75.6302964,105.301753 L73.8986319,103.862666 L75.3307005,102.122514 L78.7940294,104.997678 L71.6366827,113.701447 L57.7803708,102.191759 L64.9407136,93.491001 Z M470.94533,90.9382768 L476.778463,97.8085641 L475.070766,99.2747472 L470.696665,94.1205264 L468.985972,95.5867096 L474.819105,102.456997 L467.982326,108.318719 L460.690161,99.7323649 L462.400854,98.2661818 L468.233987,105.136469 L471.652376,102.204103 L468.737308,98.7689592 L467.023619,100.235142 L465.567583,98.5160652 L467.27528,97.049882 L465.819243,95.3338156 L470.94533,90.9382768 Z M70.7348989,104.16373 L72.4695593,105.602818 L71.0374908,107.342969 L69.3058263,105.903882 L70.7348989,104.16373 Z M65.5399055,99.8494789 L67.2715699,101.285556 L65.8424974,103.025707 L64.1078369,101.589631 L65.5399055,99.8494789 Z M477.281784,91.4410542 L478.740816,93.1571207 L477.030123,94.6233038 L475.574087,92.9072373 L477.281784,91.4410542 Z M86.7827549,70.5691698 L94.5602653,78.7159696 L91.3156414,81.841017 L94.4254471,85.1015433 L96.0492571,83.5390196 L97.60416,85.1677775 L94.362532,88.2928249 L89.6948274,83.4035407 L88.0710175,84.9660644 L92.7387221,89.8583592 L91.1179081,91.4208829 L84.8982965,84.9028409 L91.3845485,78.6497355 L89.8266496,77.017967 L86.5850216,80.146025 L85.0271228,78.5142566 L88.2717467,75.3892092 L86.7168438,73.7604513 L80.2305919,80.0105461 L78.6726931,78.3817883 L86.7827549,70.5691698 Z M474.366715,88.0059106 L475.822752,89.7219771 L474.115055,91.1881602 L472.656023,89.4720937 L474.366715,88.0059106 Z M451.84519,65.5982972 L460.078087,73.281458 L453.960338,79.8988513 L447.375219,73.754129 L445.84728,75.406972 L450.787617,80.0162663 L446.200803,84.9808166 L442.905248,81.9069501 L444.436183,80.2510965 L446.083961,81.789535 L447.608904,80.1336814 L444.319341,77.0598149 L442.788405,78.7156686 L441.143624,77.1802407 L447.258377,70.5598368 L453.843495,76.7075697 L456.905366,73.3988731 L451.962033,68.7895787 L450.43709,70.4424217 L448.789312,68.9069938 L451.84519,65.5982972 Z M83.4063088,80.0767803 L84.9612117,81.7085487 L83.3403977,83.2710724 L81.7824989,81.6423146 L83.4063088,80.0767803 Z M112.049777,55.2796196 L113.406947,57.0769734 L111.618359,58.4407947 L117.050033,65.639242 L118.841617,64.2724101 L117.484447,62.4750562 L119.270039,61.111235 L121.99037,64.7089533 L114.827031,70.167249 L113.469862,68.3668845 L115.261445,67.0030632 L111.183945,61.6049804 L109.398353,62.9688017 L108.035192,61.1714478 L109.826775,59.8076266 L108.469606,58.0072621 L112.049777,55.2796196 Z M428.769713,47.3318232 L430.582268,48.6685487 L423.93723,57.772733 L427.562341,60.4431733 L426.235131,62.2646123 L424.41958,60.9278868 L423.09237,62.7493258 L426.71748,65.4197661 L425.390271,67.2412051 L416.327494,60.563599 L417.654704,58.74216 L421.279814,61.415611 L422.61002,59.594172 L418.98491,56.9237317 L420.315115,55.1022927 L422.127671,56.4360075 L428.769713,47.3318232 Z M428.407202,55.4665805 L430.219757,56.8002953 L428.889551,58.6217343 L427.079992,57.2880195 L428.407202,55.4665805 Z M107.543854,53.0457225 L108.901024,54.846087 L107.112436,56.2099082 L105.755266,54.4095437 L107.543854,53.0457225 Z M137.728144,32.9779808 L142.287994,40.7604928 L134.543439,45.3457021 L135.6849,47.2905774 L141.491069,43.8524232 L144.915451,49.6870492 L141.041675,51.9811591 L139.903211,50.0362838 L141.8386,48.8892288 L140.69714,46.9443535 L136.82636,49.2354528 L137.967821,51.1803281 L136.029435,52.3273831 L131.469585,44.544871 L139.21414,39.9596618 L136.931219,36.0699111 L131.122054,39.5080654 L132.263514,41.4529407 L130.328125,42.5999957 L128.045204,38.710245 L137.728144,32.9779808 Z M401.66437,35.5761657 L405.574097,37.8070521 L404.462596,39.7699913 L402.50923,38.6560534 L398.072215,46.5078102 L400.022584,47.6247588 L401.134085,45.6588089 L403.087451,46.7757575 L400.867445,50.7016359 L393.053983,46.2428737 L394.162488,44.2769238 L396.115853,45.3938723 L399.44736,39.5050547 L397.490999,38.3881062 L398.599504,36.425167 L400.555865,37.5391049 L401.66437,35.5761657 Z M165.810469,23.9620083 L166.718245,26.0273094 L164.663017,26.9365236 L168.291124,35.2007385 L170.349348,34.2885137 L169.441572,32.2232126 L171.4968,31.3109878 L173.312351,35.4415899 L165.091439,39.0904892 L164.180667,37.0221775 L166.238891,36.1129633 L163.515564,29.9170601 L161.460336,30.8262743 L160.549565,28.7609732 L162.607789,27.851759 L161.700013,25.7834473 L165.810469,23.9620083 Z M371.244597,16.1084451 L373.317801,16.9875529 L367.194061,31.5470222 L369.264268,32.4261299 L370.139089,30.3457757 L372.2063,31.2248834 L373.081121,29.1445291 L375.151328,30.0206262 L377.775789,23.782574 L375.705581,22.9034663 L376.580401,20.823112 L380.720817,22.5813275 L376.346716,32.9800882 L374.279504,32.1009805 L373.404684,34.1813348 L371.33148,33.302227 L370.45666,35.3825813 L364.249033,32.7482687 L371.244597,16.1084451 Z M403.884376,31.6502873 L405.837741,32.7642251 L404.729236,34.730175 L402.775871,33.6132265 L403.884376,31.6502873 Z M189.41773,10.2527446 L192.725269,21.0398783 L197.018479,19.7121847 L197.680586,21.8708157 L195.532483,22.5361678 L196.19459,24.6917882 L200.490795,23.3640947 L201.149906,25.5227257 L190.412388,28.8434648 L189.753277,26.6878445 L194.046487,25.3571403 L193.387376,23.1985093 L189.09117,24.5292135 L188.429063,22.3705825 L190.577166,21.7052304 L187.272623,10.915086 L189.41773,10.2527446 Z M372.760553,24.1047128 L374.830761,24.9838206 L373.955941,27.0641748 L371.885733,26.1850671 L372.760553,24.1047128 Z M341.155279,6.25370755 L343.309374,6.88293192 L342.683219,9.05059485 L351.317573,11.5674924 L349.436111,18.0734918 L347.27902,17.4442674 L348.531331,13.1089416 L342.057063,11.2212684 L338.30013,24.2302566 L336.143039,23.6010323 L341.155279,6.25370755 Z M161.93969,20.7406204 L162.847465,22.8059214 L160.789241,23.7181463 L159.884462,21.6528452 L161.93969,20.7406204 Z M225.316812,6.02038272 L225.724263,8.24223722 L219.091209,9.46455826 L219.498659,11.6864128 L228.339735,10.0546443 L229.960549,18.9390516 L218.911451,20.9772569 L218.504001,18.7554024 L227.345077,17.1236339 L226.536168,12.6829356 L222.114132,13.4988198 L222.521582,15.7206743 L220.310564,16.1271111 L219.90611,13.9052566 L217.695092,14.3147041 L216.475736,7.6521512 L225.316812,6.02038272 Z M310.09587,1.42108547e-14 L312.315875,0.370309083 L311.207371,7.05393644 L313.421384,7.42424553 L314.161386,2.96849395 L320.812416,4.08243185 L319.700915,10.7660592 L315.266895,10.0224304 L314.898392,12.2503062 L319.332412,12.9909244 L318.223907,19.6745517 L307.138858,17.8139744 L308.247363,11.1333576 L312.681382,11.8799971 L313.049885,9.65212131 L308.618862,8.90548186 L310.09587,1.42108547e-14 Z M195.697261,15.3979334 L196.359368,17.5535537 L194.211265,18.2189058 L193.549158,16.0602748 L195.697261,15.3979334 Z M310.092874,13.7345532 L309.727367,15.9624289 L316.3754,17.0763668 L316.743903,14.8484911 L310.092874,13.7345532 Z M343.590994,14.0181557 L345.748085,14.6473801 L345.121929,16.815043 L342.964839,16.1858187 L343.590994,14.0181557 Z M316.006897,5.56968947 L315.638394,7.79455461 L317.852408,8.16787434 L318.226903,5.93999855 L316.006897,5.56968947 Z M217.877845,2.8020054 L218.2823,5.0238599 L216.074278,5.4302967 L215.666827,3.21145284 L217.877845,2.8020054 Z M222.293889,1.98612116 L222.70134,4.20797566 L220.493318,4.61441246 L220.085867,2.39255796 L222.293889,1.98612116 Z" id="Combined-Shape" fill="#00B5DD"></path>
    </g>
</svg>